<?xml version="1.0" encoding="utf-8"?>
<!-- Generator: Adobe Illustrator 18.1.1, SVG Export Plug-In . SVG Version: 6.00 Build 0)  -->
<svg version="1.1" id="Layer_1" xmlns="http://www.w3.org/2000/svg" xmlns:xlink="http://www.w3.org/1999/xlink" x="0px" y="0px"
	 width="360px" height="360px" viewBox="-215 127 360 360" enable-background="new -215 127 360 360" xml:space="preserve">
<g>
	
		<ellipse transform="matrix(0.3784 -0.9256 0.9256 0.3784 -231.0577 92.2893)" fill="#E5DF84" cx="-46.8" cy="218.2" rx="1.9" ry="3.8"/>
	<circle fill="#E5DF84" cx="-35" cy="307" r="173.7"/>
	<path fill="#3A434C" d="M-121.6,224.9c-1.3,7.6-2.9,22.6,4.5,26c0,0,6.6,12.7,5.3,33.1c-0.1,1.9-0.2,3.9-0.2,5.8
		c0.1,6-0.2,20.3-5.2,24.6c0,0-4,7.4-7.6,17c-4.2,11.1-5.9,22.9-5.2,34.7c0.7,12,3.3,30.6,9.5,42.6c0,0-2-53,5.7-60.7
		c0,0,25.9-25.4,29.5-74.5c0,0,1.2-4.5,6.4,6.2c0,0,7,5.9,4.1-3.8c-0.2-0.7-0.7-1.2-1.2-1.6c-1.5-1.4-5.1-4.3-8-4.9l0.5-21.3
		c0,0,0-7.6-8.5-15.9c-1.4-1.4-2.5-3.1-3-4.9c-1.2-4.1-5.2-11-18.6-5.1c0,0-2.2-4,5.6-6.9c3.3-1.3,7-0.9,9.8,1.2
		c1.3,1,2.2,2.2,2,3.5c0,0,6.4,1-1-6.1c0,0-9.8-7.3-20,2.5C-119.6,218.7-121.1,221.7-121.6,224.9z"/>
	<path fill="#3A434C" d="M-118.4,258.7c0,0-11.6,4.7-12.7,13.5c0,0,0,7.8,5.5,3.8l0.3-2.6c0.3-2.4,1.4-4.7,3.1-6.4
		C-119,264-114.6,259.1-118.4,258.7z"/>
	<path fill="#3B454F" d="M-60,217.1c4.8-4,15.6-12,21.6-9c0,0,4.6,4.9,3.1,15.5c-0.2,1.7-2,2.7-3.6,2.1c-2.1-0.8-4.1-0.9-0.6,4.2
		c0,0,4.8-1.4,3.6,14.1c-0.1,2-0.2,3.9-0.1,5.9c0.1,11.5,0.6,46.7,0.8,64.5c0.1,6.9-1.7,13.6-5.2,19.5c-5.6,9.5-14.9,25.2-24.4,40.3
		c0,0,1.2-13.6,9.7-28c2.5-4.2,4-9,4.6-13.8c1.3-11,2.1-29.8-5.3-43c-1.3-2.3-2.2-4.7-2.9-7.2c-2.4-7.7-6.3-22.1-5.2-28.8
		c0.3-1.5,0.3-3.1,0-4.6c-0.4-2.1-1.2-4.6-2.9-6.1c-2.1-1.9-3.6-4.6-3.2-7.4c0.4-3.2,2.3-7.4,7.7-12l-0.1-0.9
		C-62.4,220.3-61.5,218.4-60,217.1z"/>
	<path fill="#3B4957" d="M23.6,196.2c0,0-9.9-11.6-21.5-2.9c0,0-13.8,10.1-14.8,17.3c0,0.3-0.1,0.5-0.1,0.8c0,7.2-2.9,10.7-6.3,14.1
		c0,0-3.2,9.1,2.2,18c1.6,2.6,1.7,5.9,1.7,8.9c0.3,16.2,1.9,69.8,6.3,94.3c1.3,7.2,1.9,14.4,2.1,21.7c0.5,19.5,1.6,52.6,2.7,55.6
		c0,0,1.8-11.2,5.8-16.1c2.5-3,4.7-6.2,6-9.9c2.7-7.3,7-20.9,12.8-46.2c0,0,4-23.9,6.1-72.5c0.3-6.3,1.5-12.6,3.7-18.6l0.3-0.8
		l1.3-30c0.1-1.3,0.2-2.7,0.5-4c1-5.3,2.8-21.2-10.8-21.9c0,0-7.9-0.7-15.5,0.2c-2.1,0.3-3.6-1.3-3.3-3.3c0.3-1.9,2.1-4.1,8-5.5
		c1.7-0.4,3.5-0.2,5.2,0.4C18.4,196.7,21.7,197.6,23.6,196.2z"/>
	<path fill="#C54E44" d="M-18.8,237.8c0,0,6.3-0.9,2.4,11.7c0,0-0.4,3-4.8-1.4C-21.2,248.2-28,237.7-18.8,237.8z"/>
	<path fill="#C54E44" d="M-70.9,249.5c0,0-1.1-6.9,5.1-4.4c0.9,0.4,1.4,1.2,1.8,2.1c0.9,2.4,0.3,8,0.1,10.5
		C-64,257.6-69.2,256.2-70.9,249.5z"/>
	<path fill="#404341" d="M33.2,265.6c0,0,0,8.6,8.4,14.6C41.6,280.2,38,259.3,33.2,265.6z"/>
	<ellipse fill="#E5DF84" cx="-56.4" cy="230.4" rx="2" ry="1.9"/>
	<path fill="#3A444F" d="M-30.1,261.7c0,0-1.8,8.2,9.1,15.5C-20.9,277.2-22.1,258.5-30.1,261.7z"/>
	<g>
		<path fill="#E04E4E" d="M57.6,362c-3.3-0.7-6.7,0.3-9.2,2.5c-8.9,7.7-28.6,28.8-1.2,46.3c0,0,25.3,16.4,26.6-9.8
			C73.9,401,80,366.7,57.6,362z"/>
		<path fill="#3B4957" d="M47.5,370.6c0.3,0,0.7,0.1,1,0.3c0.5,0.3,1.5,0.9,2.4,0.7h9.4c1.1,0,2.1,0.5,2.7,1.4
			c0.7,0.9,1,2.3-0.5,3.6c-0.5,0.4-1.1,0.6-1.7,0.7c-1.1,0.1-2.9,0.6-3.1,2c0,0,3.6-0.4,5.6,1.4c0.7,0.6,1,1.4,1,2.3v5.9
			c0,0.6-0.1,1.2-0.4,1.8c-0.7,1.2-2.3,2.9-6,2.7c0,0-0.2,4.8,0.4,5.6c0,0,1.7,3,6,6.2c0.4,0.3,0.7,0.7,0.7,1.2
			c0.1,0.4-0.1,0.9-0.8,0.8c-0.6,0-1.2-0.3-1.6-0.7c-1.3-1.2-4.7-4.5-5.5-6.8c0,0-2.2,4.8-6.5,7.2c0,0-2.1,1-1.6-0.6
			c0.1-0.4,0.4-0.7,0.6-0.9c1-0.9,4.2-3.4,5.8-5.6c0.4-0.6,0.7-1.2,0.7-1.9l0.2-4.5c0,0-4.9,0.5-6.6-2.9c-0.3-0.6-0.4-1.3-0.4-2
			v-5.8c0,0,0.4-3.8,6.5-3.4c0,0-0.6-3.4,4.3-3.6c0,0,1.8,0,1.8-1.1c0,0,0.6-1.9-5.3-1.4c0,0-0.6,3.1-5.2,4.2c0,0-3.9,1.7-5.4,6.2
			c-0.1,0.4-0.6,0.7-1,0.6s-0.7-0.4-0.4-1.4c0,0,1.3-5.6,9.1-8.2c0,0,1.4-1.6-0.7-1.5c0,0-6.5,1-6.5-1.9
			C46.6,371.2,46.8,370.6,47.5,370.6z"/>
		<path fill="#E04E4E" d="M51.2,383.9c0,0-0.7-3.3,4.6-2.9C55.8,381,54.8,383.9,51.2,383.9z"/>
		<path fill="#E04E4E" d="M57.8,381c0,0-0.7,2.1,5.3,2.9C63,383.9,63.9,380.6,57.8,381z"/>
		<path fill="#E04E4E" d="M51.1,385.9c0,0,3.8-0.5,5.5-2.7c0,0,1.8,1.9,6.2,2.3v3.1c0,0-4.2-0.2-5.1-3.3c-0.1-0.3-0.3-0.5-0.6-0.5
			c-0.3,0-0.6,0-0.8,0.6c-0.5,1-1.2,1.9-2.1,2.4c-1.2,0.7-2.6,1.3-3.2,0.3v-2.2H51.1z"/>
		<path fill="#E04E4E" d="M52.9,390.1c0.7-0.1,2.2-0.4,4.1-2c0,0,2.1,1.7,4.4,2.2c0.2,0,0.2,0.3,0,0.4c-1.6,0.7-5.7,2.2-8.6-0.3
			C52.7,390.3,52.8,390.1,52.9,390.1z"/>
		<path fill="#3B4957" d="M52,394.4c0,1.1-0.7,3.7-5.2,6c-0.3,0.2-0.5,0.4-0.5,0.8c0,0.5,0.3,1,2.1,0.4c0,0,5.1-2.2,4.9-7.2
			c0,0,0-0.1-0.1-0.2C52.9,393.5,52.1,393.8,52,394.4z"/>
		<path fill="#3B4957" d="M61.5,394.3v1.6c0,1,0.4,2,1,2.8c0.7,0.9,1.7,2,2.9,2.8c0.6,0.5,1.4,0.6,2.1,0.4c0.5-0.1,0.9-0.4,0.2-1.1
			c0,0-5.4-2.9-4.8-6.5c0-0.3,0-0.6-0.2-0.7c-0.1-0.1-0.3-0.2-0.5-0.1C61.7,393.6,61.5,394,61.5,394.3z"/>
	</g>
</g>
</svg>
